<svg id="Layer_1" enable-background="new 0 0 512 512" height="512" viewBox="0 0 512 512" width="512" xmlns="http://www.w3.org/2000/svg"><path d="m506.838 388.069-110.578-96.099c-10.936-9.503-24.932-14.736-39.41-14.736h-123.48l21.535-58.35h35.598c8.272 0 14.978-6.716 14.978-15s-6.706-15-14.978-15h-228.18l-33.479-81.958c-3.131-7.666-11.872-11.339-19.534-8.204-7.656 3.137-11.323 11.896-8.191 19.563 18.386 45.015 53.954 132.088 72.261 176.897v104.215c0 8.284 6.706 15 14.978 15s14.978-6.716 14.978-15v-92.164c56.621.003 166.697.003 223.293 0v92.164c0 8.284 6.706 15 14.978 15s14.978-6.716 14.978-15v-92.164h.265c7.266 0 14.289 2.626 19.777 7.395l110.578 96.098c2.835 2.463 6.331 3.671 9.81 3.671 4.19 0 8.358-1.751 11.319-5.169 5.422-6.256 4.752-15.73-1.496-21.159zm-283.868-169.185-21.535 58.35h-103.022l-23.835-58.35z"/></svg>