<svg id="Capa_1" enable-background="new 0 0 512 512" height="512" viewBox="0 0 512 512" width="512" xmlns="http://www.w3.org/2000/svg"><g><path d="m512 103.606c0-4.151-3.365-7.516-7.516-7.516s-7.516 3.365-7.516 7.516c0 38.321-31.177 69.498-69.498 69.498-38.322 0-69.499-31.177-69.499-69.498s31.177-69.498 69.499-69.498c26.533 0 50.378 14.76 62.232 38.52 1.853 3.715 6.37 5.224 10.08 3.37 3.715-1.853 5.224-6.366 3.37-10.08-14.414-28.893-43.414-46.842-75.682-46.842-46.61 0-84.531 37.92-84.531 84.53 0 .602.033 1.195.046 1.794h-202.935c-4.151 0-7.516 3.365-7.516 7.516s3.365 7.516 7.516 7.516h204.576c3.789 18.682 13.77 35.132 27.685 47.147l-146.667 156.91c-2.394 2.561-5.645 3.972-9.151 3.972s-6.756-1.411-9.151-3.972l-187.913-201.038c2.191-1.877 5.03-3.02 8.135-3.02h75.345c4.151 0 7.516-3.365 7.516-7.516s-3.365-7.516-7.516-7.516h-75.346c-15.195 0-27.558 12.363-27.558 27.558v263.705c-.306 14.766 12.785 27.859 27.558 27.558h225.966l34.603 59.934c3.169 5.49 8.847 8.768 15.186 8.768h.001c6.34 0 12.017-3.277 15.187-8.768l34.602-59.934h52.314c14.763.306 27.861-12.79 27.558-27.558v-208.725c44.05-2.852 79.02-39.574 79.02-84.331zm-382.281 159.851-114.682 122.691v-245.382zm275.705 145.732h-53.761c-4.46 0-8.616 2.4-10.848 6.263l-35.325 61.187c-.629 1.09-1.63 1.253-2.171 1.253-.539 0-1.539-.162-2.169-1.253l-35.327-61.189c-2.231-3.862-6.388-6.261-10.847-6.261h-227.413c-3.655.074-7.077-1.67-9.421-4.35l121.865-130.376 56.354 60.29c5.192 5.555 12.529 8.74 20.132 8.74s14.941-3.185 20.133-8.74l56.353-60.289 62.818 67.205c2.84 3.037 7.596 3.189 10.623.359 3.033-2.835 3.193-7.591.359-10.623l-63.512-67.948 81.35-87.031c9.985 5.898 21.277 9.802 33.333 11.16v198.563l-26.961-28.844c-2.834-3.032-7.591-3.194-10.623-.359-3.033 2.835-3.193 7.591-.359 10.623l34.803 37.234c-2.166 2.614-5.348 4.116-9.386 4.386z"/><path d="m428.882 149.24c4.151 0 7.516-3.365 7.516-7.516v-68.218c0-4.151-3.365-7.516-7.516-7.516h-14.582c-4.151 0-7.516 3.365-7.516 7.516s3.365 7.516 7.516 7.516h7.066v60.702c0 4.151 3.365 7.516 7.516 7.516z"/></g></svg>